<?xml version="1.0" encoding="UTF-8" standalone="no"?>
<svg
   xmlns:dc="http://purl.org/dc/elements/1.1/"
   xmlns:cc="http://creativecommons.org/ns#"
   xmlns:rdf="http://www.w3.org/1999/02/22-rdf-syntax-ns#"
   xmlns:svg="http://www.w3.org/2000/svg"
   xmlns="http://www.w3.org/2000/svg"
   viewBox="0 0 97.633331 107.33027"
   height="107.33027"
   width="97.633331"
   xml:space="preserve"
   id="svg2"
   version="1.1"><metadata
     id="metadata8"><rdf:RDF><cc:Work
         rdf:about=""><dc:format>image/svg+xml</dc:format><dc:type
           rdf:resource="http://purl.org/dc/dcmitype/StillImage" /></cc:Work></rdf:RDF></metadata><defs
     id="defs6"><clipPath
       id="clipPath18"
       clipPathUnits="userSpaceOnUse"><path
         id="path16"
         d="M 0,80.498 H 73.225 V 0 H 0 Z" /></clipPath></defs><g
     transform="matrix(1.3333333,0,0,-1.3333333,0,107.33027)"
     id="g10"><g
       id="g12"><g
         clip-path="url(#clipPath18)"
         id="g14"><g
           transform="translate(14.0939,51.7849)"
           id="g20"><path
             id="path22"
             style="fill:#ffffff;fill-opacity:1;fill-rule:nonzero;stroke:none"
             d="m 0,0 c 15.172,4.136 29.799,3.845 43.909,0 v 10.182 l 9.222,2.738 c 0.2,-0.031 0.352,-0.053 0.424,-0.073 0.323,-0.079 0.513,-0.362 0.636,-0.852 0.144,-0.566 0.194,-1.365 0.203,-2.389 -1.32,-0.275 -2.308,-1.401 -2.308,-2.762 0,-0.89 0.431,-1.689 1.098,-2.201 -1.167,-2.157 -2.322,-8.44 -2.275,-10.567 0.041,-2.145 8.186,-2.145 8.221,0 0.039,2.127 -1.112,8.41 -2.281,10.567 0.671,0.512 1.097,1.311 1.097,2.201 0,1.321 -0.933,2.418 -2.197,2.73 -0.012,1.123 -0.063,2.04 -0.243,2.726 -0.122,0.483 -0.304,0.871 -0.552,1.16 L 58.005,14.372 22.698,28.713 -14.094,17.788 0,12.061 Z" /></g><g
           transform="translate(53.0031,8.6223)"
           id="g24"><path
             id="path26"
             style="fill:#ffffff;fill-opacity:1;fill-rule:nonzero;stroke:none"
             d="m 0,0 -7.925,11.058 -0.135,0.188 -0.552,0.774 -1.818,2.535 -1.364,1.905 -9.407,18.795 -0.581,1.184 -0.579,1.186 -0.383,0.785 -0.194,-1.137 5.951,-16.644 2.647,-7.591 0.373,-1.077 0.311,-0.889 0.311,-0.888 0.299,-0.859 3.301,-1.525 0.239,-0.243 0.158,-0.164 0.164,-0.162 7.716,-7.802 c -1.68,-1.051 -2.44,-3.17 -1.704,-5.13 0.847,-2.268 3.366,-3.468 5.628,-2.679 0.046,0.016 0.094,0.034 0.141,0.05 2.166,0.842 3.248,3.264 2.416,5.488 C 4.244,-0.781 2.085,0.398 0,0 m -11.008,11.961 -0.836,-0.324 -0.707,0.535 0.127,0.862 0.834,0.323 0.709,-0.535 z M 2.145,-7.238 C 2.112,-7.25 2.078,-7.262 2.043,-7.274 c -1.651,-0.578 -3.496,0.299 -4.115,1.957 -0.608,1.622 0.184,3.394 1.767,4.008 0.035,0.012 0.069,0.026 0.104,0.038 1.652,0.575 3.494,-0.303 4.112,-1.958 C 4.518,-4.852 3.73,-6.623 2.145,-7.238" /></g><g
           transform="translate(30.5681,8.7693)"
           id="g28"><path
             id="path30"
             style="fill:#ffffff;fill-opacity:1;fill-rule:nonzero;stroke:none"
             d="m 0,0 c -2.089,0.389 -4.238,-0.8 -5.001,-2.867 -0.818,-2.225 0.274,-4.642 2.444,-5.475 0.045,-0.018 0.092,-0.036 0.14,-0.049 2.264,-0.78 4.779,0.43 5.616,2.703 0.722,1.966 -0.043,4.08 -1.73,5.118 L 9.15,7.271 v 0.604 l -1.278,3.218 z m 2.093,-5.31 c -0.608,-1.658 -2.447,-2.542 -4.101,-1.976 -0.036,0.012 -0.069,0.026 -0.104,0.039 -1.588,0.608 -2.384,2.376 -1.785,4 0.613,1.661 2.447,2.546 4.104,1.976 0.034,-0.012 0.068,-0.024 0.102,-0.038 1.589,-0.609 2.386,-2.374 1.784,-4.001" /></g></g></g><g
       transform="translate(44.9313,22.2317)"
       id="g32"><path
         id="path34"
         style="fill:#ffffff;fill-opacity:1;fill-rule:nonzero;stroke:none"
         d="M 0,0 1.773,5.165 7.759,23.664 7.563,24.801 -2.809,3.927 V 2.994 l 2.5,-3.69 z" /></g><g
       transform="translate(15.8481,47.0322)"
       id="g36"><path
         id="path38"
         style="fill:#ffffff;fill-opacity:1;fill-rule:nonzero;stroke:none"
         d="M 0,0 V -0.928 -1.347 -1.363 -1.366 H 4.227 L 4.253,-1.952 H 0 V -2.321 -2.893 H 4.296 L 4.325,-3.479 H 0 V -3.85 -4.421 H 4.365 L 4.393,-5.009 H 0 V -5.378 -5.95 H 4.436 L 4.465,-6.538 H 0 V -6.907 -7.479 H 4.506 L 4.533,-8.066 H 0 v -0.37 -0.57 H 4.577 L 4.604,-9.595 H 0 v -0.369 -0.572 h 4.643 l 0.029,-0.586 H 0 v -0.373 -0.569 h 4.715 l 0.027,-0.588 H 0 v -0.371 -0.571 h 4.784 l 0.028,-0.585 H 0 v -0.371 -0.572 h 4.855 l 0.028,-0.587 H 0 v -0.369 -0.572 h 4.923 l 0.029,-0.589 H 0 v -0.369 -0.57 h 4.993 l 0.028,-0.589 H 0 v -0.37 -0.569 h 5.064 l 0.028,-0.589 H 0 v -0.37 -0.57 h 5.134 l 0.028,-0.587 H 0 v -0.372 -0.54 -0.029 -0.019 h 5.205 l 0.02,-0.451 h 0.001 v -0.018 -0.018 H 5.225 l -0.02,-0.453 H 0 v -0.942 H 5.162 L 5.117,-25.67 H 0 v -0.94 H 5.072 L 5.027,-27.618 H 0 v -0.94 H 4.984 L 4.937,-29.566 H 0 v -0.94 H 4.895 L 4.848,-31.513 H 0 v -0.942 H 4.806 L 4.759,-33.461 H 0 v -0.94 H 4.715 L 4.671,-35.408 H 0 v -0.941 H 4.627 L 4.581,-37.355 H 0 v -0.942 H 4.537 L 4.491,-39.302 H 0 v -0.943 H 4.451 L 4.403,-41.251 H 0 v -0.942 H 4.361 L 4.315,-43.198 H 0 V -44.14 H 4.272 L 4.227,-45.121 H 0 v -1.382 h 6.009 l 2.444,22.312 v 0.574 0.546 0.72 L 6,0 Z" /></g></g></svg>