<?xml version="1.0" encoding="UTF-8" standalone="no"?>
<svg
   xmlns:dc="http://purl.org/dc/elements/1.1/"
   xmlns:cc="http://creativecommons.org/ns#"
   xmlns:rdf="http://www.w3.org/1999/02/22-rdf-syntax-ns#"
   xmlns:svg="http://www.w3.org/2000/svg"
   xmlns="http://www.w3.org/2000/svg"
   viewBox="0 0 206.84534 287.53732"
   height="287.53732"
   width="206.84534"
   xml:space="preserve"
   id="svg2"
   version="1.1"><metadata
     id="metadata8"><rdf:RDF><cc:Work
         rdf:about=""><dc:format>image/svg+xml</dc:format><dc:type
           rdf:resource="http://purl.org/dc/dcmitype/StillImage" /></cc:Work></rdf:RDF></metadata><defs
     id="defs6"><clipPath
       id="clipPath18"
       clipPathUnits="userSpaceOnUse"><path
         id="path16"
         d="M 0,215.653 H 155.134 V 0 H 0 Z" /></clipPath></defs><g
     transform="matrix(1.3333333,0,0,-1.3333333,0,287.53733)"
     id="g10"><g
       id="g12"><g
         clip-path="url(#clipPath18)"
         id="g14"><g
           transform="translate(149.9004,213.3848)"
           id="g20"><path
             id="path22"
             style="fill:#fff;fill-opacity:1;fill-rule:nonzero;stroke:none"
             d="m 0,0 c 2.996,-2.28 6.757,-7.485 4.59,-11.432 -2.147,-3.975 -5.789,-7.632 -5.789,-7.632 l -75.313,-67.832 c 0,0 0.461,-0.537 -5.634,-0.621 -6.101,-0.091 -10.852,3.284 -10.852,3.284 l -23.628,-20.719 -5.735,6.836 L -8.626,2.269 c 0,0 5.629,0.028 8.626,-2.269" /></g><g
           transform="translate(0,87.2803)"
           id="g24"><path
             id="path26"
             style="fill:#fff;fill-opacity:1;fill-rule:nonzero;stroke:none"
             d="m 0,0 2.311,3 c 0,0 2.86,0.38 7.957,4.251 1.426,1.072 3.826,4.22 3.826,4.22 L 16.6,6.824 9.673,0.808 Z" /></g><g
           transform="translate(22.0605,105.3848)"
           id="g28"><path
             id="path30"
             style="fill:#fff;fill-opacity:1;fill-rule:nonzero;stroke:none"
             d="M 0,0 -3.868,0.591 -5.303,4.241 -2.844,7.284 1.018,6.697 2.429,3.05 Z M -3.293,12.784 C -7.837,12.762 -18.617,9.257 6.956,-19.68 c 20.52,-23.193 74.001,-79.138 88.867,-83.987 14.86,-4.891 28.406,0.402 12.702,19.23 C 94.44,-67.506 66.222,-58.493 25.194,-17.129 9.376,-1.17 1.301,12.785 -3.293,12.784" /></g></g></g></g></svg>