<?xml version="1.0" encoding="UTF-8" standalone="no"?>
<svg
   xmlns:dc="http://purl.org/dc/elements/1.1/"
   xmlns:cc="http://creativecommons.org/ns#"
   xmlns:rdf="http://www.w3.org/1999/02/22-rdf-syntax-ns#"
   xmlns:svg="http://www.w3.org/2000/svg"
   xmlns="http://www.w3.org/2000/svg"
   viewBox="0 0 1421.1067 641.5387"
   height="641.5387"
   width="1421.1067"
   xml:space="preserve"
   id="svg2"
   version="1.1"><metadata
     id="metadata8"><rdf:RDF><cc:Work
         rdf:about=""><dc:format>image/svg+xml</dc:format><dc:type
           rdf:resource="http://purl.org/dc/dcmitype/StillImage" /></cc:Work></rdf:RDF></metadata><defs
     id="defs6" /><g
     transform="matrix(1.3333333,0,0,-1.3333333,0,641.53867)"
     id="g10"><g
       transform="translate(797.8561,218.6416)"
       id="g12"><path
         id="path14"
         style="fill:#ffffff;fill-opacity:1;fill-rule:nonzero;stroke:none"
         d="m 0,0 h -21.898 l -6,55.948 -6,-55.948 h -22.649 l -11.699,104.996 h 16.049 l 8.849,-82.797 7.95,82.797 h 15.9 l 8.25,-83.397 8.549,83.397 h 14.398 z m 98.654,98.827 -87.715,12.789 -39.198,79.388 -39.239,-79.388 -87.703,-12.789 63.409,-61.846 -14.944,-87.455 78.477,41.328 78.403,-41.328 -14.885,87.455 z" /></g><g
       transform="translate(260.4684,251.9404)"
       id="g16"><path
         id="path18"
         style="fill:#ffffff;fill-opacity:1;fill-rule:nonzero;stroke:none"
         d="M 0,0 H 15.899 L 7.95,53.098 Z" /></g><g
       transform="translate(281.4674,218.6416)"
       id="g20"><path
         id="path22"
         style="fill:#ffffff;fill-opacity:1;fill-rule:nonzero;stroke:none"
         d="M 0,0 -2.85,19.049 H -23.099 L -25.948,0 h -15.15 l 16.799,104.996 h 24.15 L 16.649,0 Z m 114.703,98.827 -87.714,12.789 -39.199,79.388 -39.239,-79.388 -87.703,-12.789 63.41,-61.846 -14.946,-87.455 78.478,41.328 78.402,-41.328 -14.884,87.455 z" /></g><g
       transform="translate(480.1878,162.09)"
       id="g24"><path
         id="path26"
         style="fill:#ffffff;fill-opacity:1;fill-rule:nonzero;stroke:none"
         d="m 0,0 -87.703,-12.79 63.41,-61.845 -14.945,-87.455 78.478,41.328 78.402,-41.328 -14.884,87.455 63.395,61.845 L 78.439,0 39.24,79.387 Z m 13.727,-7.621 h 50.998 v -15 h -17.25 v -89.995 H 30.976 v 89.995 H 13.727 Z" /></g><g
       transform="translate(993.51,481.1544)"
       id="g28"><path
         id="path30"
         style="fill:#ffffff;fill-opacity:1;fill-rule:nonzero;stroke:none"
         d="m 0,0 -22.357,-45.303 -49.958,-7.238 36.148,-35.281 -8.529,-49.765 44.696,23.495 44.677,-23.495 -8.519,49.765 36.158,35.281 -49.968,7.238 z" /></g><g
       transform="translate(72.315,481.1544)"
       id="g32"><path
         id="path34"
         style="fill:#ffffff;fill-opacity:1;fill-rule:nonzero;stroke:none"
         d="m 0,0 -22.356,-45.303 -49.959,-7.238 36.148,-35.281 -8.528,-49.765 44.695,23.495 44.677,-23.495 -8.519,49.765 36.158,35.281 -49.968,7.238 z" /></g></g></svg>