<?xml version="1.0" encoding="UTF-8" standalone="no"?>
<svg
   xmlns:dc="http://purl.org/dc/elements/1.1/"
   xmlns:cc="http://creativecommons.org/ns#"
   xmlns:rdf="http://www.w3.org/1999/02/22-rdf-syntax-ns#"
   xmlns:svg="http://www.w3.org/2000/svg"
   xmlns="http://www.w3.org/2000/svg"
   viewBox="0 0 125.7484 224.98267"
   height="224.98267"
   width="125.7484"
   xml:space="preserve"
   id="svg2"
   version="1.1"><metadata
     id="metadata8"><rdf:RDF><cc:Work
         rdf:about=""><dc:format>image/svg+xml</dc:format><dc:type
           rdf:resource="http://purl.org/dc/dcmitype/StillImage" /></cc:Work></rdf:RDF></metadata><defs
     id="defs6"><clipPath
       id="clipPath18"
       clipPathUnits="userSpaceOnUse"><path
         id="path16"
         d="M 0,168.737 H 94.311 V 0 H 0 Z" /></clipPath></defs><g
     transform="matrix(1.3333333,0,0,-1.3333333,0,224.98267)"
     id="g10"><g
       id="g12"><g
         clip-path="url(#clipPath18)"
         id="g14"><g
           transform="translate(48.8303,103.8542)"
           id="g20"><path
             id="path22"
             style="fill:#ffffff;fill-opacity:1;fill-rule:nonzero;stroke:none"
             d="M 0,0 1.907,1.296 2.88,4.08 1.826,3.634 c 0,0 -0.332,-0.816 -1.857,-2.021 C -0.266,1.428 -1.071,1.04 -1.844,0.694 -1.285,0.507 -0.674,0.279 0,0" /></g><g
           transform="translate(41.8645,101.2702)"
           id="g24"><path
             id="path26"
             style="fill:#ffffff;fill-opacity:1;fill-rule:nonzero;stroke:none"
             d="m 0,0 -29.292,-21.028 c 0,0 -0.436,-1.651 0.009,-2.705 0.443,-1.057 0.957,-1.745 2.285,-1.413 1.329,0.335 2.688,1.13 2.688,1.13 l 17.006,12.341 c 0,0 0.123,-0.176 0.613,1.612 0.49,1.788 0.591,2.621 0.591,2.621 l 8.324,5.815 C 1.177,-0.989 0.404,-0.465 0,0" /></g><g
           transform="translate(44.1814,101.4411)"
           id="g28"><path
             id="path30"
             style="fill:#ffffff;fill-opacity:1;fill-rule:nonzero;stroke:none"
             d="M 0,0 -0.361,1.131 0.437,2.011 1.597,1.757 1.959,0.624 1.161,-0.253 Z M 6.641,0.425 C -1.762,5.401 -2.232,2.294 -2.031,0.999 -1.818,-0.376 2.758,-2.138 8.3,-6.127 22.669,-16.472 26.717,-24.514 32.469,-27.94 c 6.402,-3.811 7.344,0.503 5.175,4.73 -1.723,3.36 -14.279,12.504 -23.35,18.655 0,0 -4.445,3.134 -7.653,4.98" /></g><g
           transform="translate(48.8303,142.3923)"
           id="g32"><path
             id="path34"
             style="fill:#ffffff;fill-opacity:1;fill-rule:nonzero;stroke:none"
             d="M 0,0 1.907,1.297 2.88,4.08 1.826,3.635 c 0,0 -0.332,-0.817 -1.857,-2.022 C -0.266,1.428 -1.071,1.041 -1.844,0.694 -1.285,0.507 -0.674,0.279 0,0" /></g><g
           transform="translate(41.8645,139.8088)"
           id="g36"><path
             id="path38"
             style="fill:#ffffff;fill-opacity:1;fill-rule:nonzero;stroke:none"
             d="m 0,0 -29.292,-21.029 c 0,0 -0.436,-1.65 0.009,-2.704 0.443,-1.057 0.957,-1.745 2.285,-1.413 1.329,0.335 2.688,1.13 2.688,1.13 l 17.006,12.341 c 0,0 0.123,-0.176 0.613,1.612 0.49,1.788 0.591,2.621 0.591,2.621 l 8.324,5.814 C 1.177,-0.99 0.404,-0.465 0,0" /></g><g
           transform="translate(44.1814,139.9797)"
           id="g40"><path
             id="path42"
             style="fill:#ffffff;fill-opacity:1;fill-rule:nonzero;stroke:none"
             d="M 0,0 -0.361,1.131 0.437,2.011 1.597,1.757 1.959,0.624 1.161,-0.253 Z m 6.641,0.425 c -8.403,4.976 -8.873,1.869 -8.672,0.574 0.213,-1.375 4.789,-3.137 10.331,-7.126 14.369,-10.345 18.417,-18.387 24.169,-21.814 6.402,-3.811 7.344,0.504 5.175,4.731 -1.723,3.36 -14.279,12.504 -23.35,18.655 0,0 -4.445,3.134 -7.653,4.98" /></g><g
           transform="translate(2.6885,133.7023)"
           id="g44"><path
             id="path46"
             style="fill:none;stroke:#ffffff;stroke-width:0.88599998;stroke-linecap:butt;stroke-linejoin:miter;stroke-miterlimit:10;stroke-dasharray:2.929, 5.859;stroke-dashoffset:0;stroke-opacity:1"
             d="m 0,0 c 0,1.245 0.866,2.798 1.925,3.452 l 40.957,28.669 c 1.058,0.654 2.787,0.649 3.841,-0.013 L 87.018,3.465 C 88.072,2.804 88.934,1.245 88.934,0 v -126.929 c 0,-1.245 -1.018,-2.263 -2.262,-2.263 H 2.262 c -1.244,0 -2.262,1.018 -2.262,2.263 z" /></g><g
           transform="translate(48.3569,52.8166)"
           id="g48"><path
             id="path50"
             style="fill:#ffffff;fill-opacity:1;fill-rule:nonzero;stroke:none"
             d="M 0,0 1.907,1.297 2.88,4.08 1.826,3.635 c 0,0 -0.332,-0.817 -1.857,-2.022 C -0.266,1.428 -1.071,1.041 -1.844,0.694 -1.285,0.507 -0.674,0.279 0,0" /></g><g
           transform="translate(41.3914,50.2331)"
           id="g52"><path
             id="path54"
             style="fill:#ffffff;fill-opacity:1;fill-rule:nonzero;stroke:none"
             d="m 0,0 -29.292,-21.029 c 0,0 -0.436,-1.65 0.009,-2.705 0.443,-1.056 0.957,-1.744 2.285,-1.412 1.329,0.335 2.688,1.13 2.688,1.13 l 17.006,12.341 c 0,0 0.123,-0.176 0.613,1.612 0.49,1.788 0.591,2.621 0.591,2.621 l 8.324,5.814 C 1.177,-0.99 0.404,-0.465 0,0" /></g><g
           transform="translate(43.7085,50.4035)"
           id="g56"><path
             id="path58"
             style="fill:#ffffff;fill-opacity:1;fill-rule:nonzero;stroke:none"
             d="M 0,0 -0.361,1.131 0.437,2.011 1.596,1.758 1.958,0.625 1.16,-0.252 Z m 6.641,0.425 c -8.403,4.976 -8.874,1.87 -8.672,0.574 0.212,-1.375 4.789,-3.137 10.33,-7.125 14.37,-10.346 18.418,-18.388 24.17,-21.814 6.401,-3.811 7.344,0.503 5.175,4.73 -1.724,3.36 -14.279,12.505 -23.35,18.655 0,0 -4.445,3.134 -7.653,4.98" /></g><g
           transform="translate(47.7434,82.4587)"
           id="g60"><path
             id="path62"
             style="fill:#ffffff;fill-opacity:1;fill-rule:nonzero;stroke:none"
             d="M 0,0 1.749,-3.545 5.66,-4.112 2.831,-6.873 3.498,-10.768 0,-8.929 l -3.498,-1.839 0.668,3.895 -2.83,2.761 3.912,0.567 z" /></g><g
           transform="translate(35.4832,74.0012)"
           id="g64"><path
             id="path66"
             style="fill:#ffffff;fill-opacity:1;fill-rule:nonzero;stroke:none"
             d="M 0,0 1.749,-3.545 5.66,-4.112 2.831,-6.873 3.498,-10.768 0,-8.929 l -3.499,-1.839 0.668,3.895 -2.829,2.761 3.911,0.567 z" /></g><g
           transform="translate(22.4961,65.1462)"
           id="g68"><path
             id="path70"
             style="fill:#ffffff;fill-opacity:1;fill-rule:nonzero;stroke:none"
             d="M 0,0 1.749,-3.545 5.66,-4.112 2.831,-6.873 3.498,-10.768 0,-8.929 l -3.499,-1.839 0.668,3.895 -2.829,2.761 3.911,0.567 z" /></g><g
           transform="translate(59.7847,74.0012)"
           id="g72"><path
             id="path74"
             style="fill:#ffffff;fill-opacity:1;fill-rule:nonzero;stroke:none"
             d="M 0,0 1.748,-3.545 5.66,-4.112 2.831,-6.873 3.498,-10.768 0,-8.929 l -3.499,-1.839 0.669,3.895 -2.83,2.761 3.911,0.567 z" /></g><g
           transform="translate(71.8152,65.8078)"
           id="g76"><path
             id="path78"
             style="fill:#ffffff;fill-opacity:1;fill-rule:nonzero;stroke:none"
             d="M 0,0 1.749,-3.545 5.66,-4.112 2.831,-6.874 3.498,-10.768 0,-8.929 l -3.498,-1.839 0.668,3.894 -2.83,2.762 3.911,0.567 z" /></g><g
           transform="translate(47.7434,127.2468)"
           id="g80"><path
             id="path82"
             style="fill:#ffffff;fill-opacity:1;fill-rule:nonzero;stroke:none"
             d="M 0,0 1.749,-3.545 5.66,-4.112 2.831,-6.873 3.498,-10.768 0,-8.929 l -3.498,-1.839 0.668,3.895 -2.83,2.761 3.912,0.567 z" /></g><g
           transform="translate(35.4832,118.7892)"
           id="g84"><path
             id="path86"
             style="fill:#ffffff;fill-opacity:1;fill-rule:nonzero;stroke:none"
             d="M 0,0 1.749,-3.545 5.66,-4.112 2.831,-6.874 3.498,-10.768 0,-8.929 l -3.499,-1.839 0.668,3.894 -2.829,2.762 3.911,0.567 z" /></g><g
           transform="translate(22.4961,109.9343)"
           id="g88"><path
             id="path90"
             style="fill:#ffffff;fill-opacity:1;fill-rule:nonzero;stroke:none"
             d="M 0,0 1.749,-3.545 5.66,-4.112 2.831,-6.873 3.498,-10.768 0,-8.929 l -3.499,-1.839 0.668,3.895 -2.829,2.761 3.911,0.567 z" /></g><g
           transform="translate(59.7847,118.7892)"
           id="g92"><path
             id="path94"
             style="fill:#ffffff;fill-opacity:1;fill-rule:nonzero;stroke:none"
             d="M 0,0 1.748,-3.545 5.66,-4.112 2.831,-6.874 3.498,-10.768 0,-8.929 l -3.499,-1.839 0.669,3.894 -2.83,2.762 3.911,0.567 z" /></g><g
           transform="translate(71.8152,110.5959)"
           id="g96"><path
             id="path98"
             style="fill:#ffffff;fill-opacity:1;fill-rule:nonzero;stroke:none"
             d="M 0,0 1.749,-3.545 5.66,-4.112 2.831,-6.874 3.498,-10.768 0,-8.93 l -3.498,-1.838 0.668,3.894 -2.83,2.762 3.911,0.567 z" /></g><g
           transform="translate(0.4651,134.0339)"
           id="g100"><path
             id="path102"
             style="fill:none;stroke:#ffffff;stroke-width:0.93000001;stroke-linecap:butt;stroke-linejoin:miter;stroke-miterlimit:10;stroke-dasharray:none;stroke-opacity:1"
             d="m 0,0 c 0,1.307 0.909,2.938 2.021,3.625 l 43.005,30.102 c 1.111,0.687 2.927,0.681 4.033,-0.014 L 91.369,3.638 C 92.476,2.944 93.381,1.307 93.381,0 v -131.193 c 0,-1.307 -1.069,-2.376 -2.375,-2.376 H 2.376 c -1.307,0 -2.376,1.069 -2.376,2.376 z" /></g></g></g></g></svg>