<?xml version="1.0" encoding="UTF-8" standalone="no"?>
<svg
   xmlns:dc="http://purl.org/dc/elements/1.1/"
   xmlns:cc="http://creativecommons.org/ns#"
   xmlns:rdf="http://www.w3.org/1999/02/22-rdf-syntax-ns#"
   xmlns:svg="http://www.w3.org/2000/svg"
   xmlns="http://www.w3.org/2000/svg"
   viewBox="0 0 125.7484 224.98267"
   height="224.98267"
   width="125.7484"
   xml:space="preserve"
   id="svg2"
   version="1.1"><metadata
     id="metadata8"><rdf:RDF><cc:Work
         rdf:about=""><dc:format>image/svg+xml</dc:format><dc:type
           rdf:resource="http://purl.org/dc/dcmitype/StillImage" /></cc:Work></rdf:RDF></metadata><defs
     id="defs6"><clipPath
       id="clipPath42"
       clipPathUnits="userSpaceOnUse"><path
         id="path40"
         d="M 0,168.737 H 94.311 V 0 H 0 Z" /></clipPath></defs><g
     transform="matrix(1.3333333,0,0,-1.3333333,0,224.98267)"
     id="g10"><g
       transform="translate(82.9055,112.841)"
       id="g12"><path
         id="path14"
         style="fill:#ffffff;fill-opacity:1;fill-rule:nonzero;stroke:none"
         d="M 0,0 -35.282,24.496 -70.563,0 V 12.248 L -35.36,36.744 0,12.248 Z" /></g><g
       transform="translate(46.1286,127.2468)"
       id="g16"><path
         id="path18"
         style="fill:#ffffff;fill-opacity:1;fill-rule:nonzero;stroke:none"
         d="M 0,0 1.749,-3.545 5.66,-4.112 2.831,-6.873 3.498,-10.768 0,-8.929 l -3.499,-1.839 0.668,3.895 -2.829,2.761 3.911,0.567 z" /></g><g
       transform="translate(33.8681,118.7892)"
       id="g20"><path
         id="path22"
         style="fill:#ffffff;fill-opacity:1;fill-rule:nonzero;stroke:none"
         d="M 0,0 1.749,-3.545 5.66,-4.112 2.831,-6.874 3.498,-10.768 0,-8.929 l -3.498,-1.839 0.668,3.894 -2.83,2.762 3.911,0.567 z" /></g><g
       transform="translate(20.881,109.9343)"
       id="g24"><path
         id="path26"
         style="fill:#ffffff;fill-opacity:1;fill-rule:nonzero;stroke:none"
         d="M 0,0 1.749,-3.545 5.66,-4.112 2.831,-6.873 3.498,-10.768 0,-8.929 l -3.498,-1.839 0.668,3.895 -2.83,2.761 3.911,0.567 z" /></g><g
       transform="translate(58.1696,118.7892)"
       id="g28"><path
         id="path30"
         style="fill:#ffffff;fill-opacity:1;fill-rule:nonzero;stroke:none"
         d="M 0,0 1.749,-3.545 5.66,-4.112 2.831,-6.874 3.498,-10.768 0,-8.929 l -3.499,-1.839 0.669,3.894 -2.83,2.762 3.911,0.567 z" /></g><g
       transform="translate(70.2004,110.5954)"
       id="g32"><path
         id="path34"
         style="fill:#ffffff;fill-opacity:1;fill-rule:nonzero;stroke:none"
         d="M 0,0 1.748,-3.545 5.66,-4.112 2.831,-6.873 3.497,-10.768 0,-8.929 l -3.499,-1.839 0.668,3.895 -2.829,2.761 3.911,0.567 z" /></g><g
       id="g36"><g
         clip-path="url(#clipPath42)"
         id="g38"><g
           transform="translate(49.8669,103.8542)"
           id="g44"><path
             id="path46"
             style="fill:#ffffff;fill-opacity:1;fill-rule:nonzero;stroke:none"
             d="M 0,0 1.907,1.296 2.88,4.08 1.826,3.634 c 0,0 -0.332,-0.816 -1.857,-2.021 C -0.266,1.428 -1.071,1.04 -1.844,0.694 -1.285,0.507 -0.674,0.279 0,0" /></g><g
           transform="translate(42.9011,101.2702)"
           id="g48"><path
             id="path50"
             style="fill:#ffffff;fill-opacity:1;fill-rule:nonzero;stroke:none"
             d="m 0,0 -29.291,-21.028 c 0,0 -0.437,-1.651 0.008,-2.705 0.443,-1.057 0.957,-1.745 2.285,-1.413 1.329,0.335 2.688,1.13 2.688,1.13 l 17.006,12.341 c 0,0 0.123,-0.176 0.613,1.612 0.49,1.788 0.591,2.621 0.591,2.621 l 8.324,5.815 C 1.177,-0.989 0.404,-0.465 0,0" /></g><g
           transform="translate(45.2182,101.4411)"
           id="g52"><path
             id="path54"
             style="fill:#ffffff;fill-opacity:1;fill-rule:nonzero;stroke:none"
             d="M 0,0 -0.361,1.131 0.437,2.011 1.596,1.757 1.959,0.624 1.16,-0.253 Z m 6.641,0.425 c -8.403,4.976 -8.874,1.869 -8.672,0.574 0.212,-1.375 4.789,-3.137 10.33,-7.126 14.37,-10.345 18.418,-18.387 24.17,-21.813 6.402,-3.811 7.344,0.503 5.175,4.73 -1.724,3.36 -14.279,12.504 -23.35,18.655 0,0 -4.445,3.134 -7.653,4.98" /></g><g
           transform="translate(2.6884,133.7023)"
           id="g56"><path
             id="path58"
             style="fill:none;stroke:#ffffff;stroke-width:0.88599998;stroke-linecap:butt;stroke-linejoin:miter;stroke-miterlimit:10;stroke-dasharray:2.929, 5.859;stroke-dashoffset:0;stroke-opacity:1"
             d="m 0,0 c 0,1.245 0.866,2.798 1.925,3.452 l 40.957,28.669 c 1.058,0.654 2.787,0.649 3.841,-0.013 L 87.018,3.465 C 88.072,2.804 88.935,1.245 88.935,0 v -126.929 c 0,-1.245 -1.018,-2.263 -2.263,-2.263 H 2.262 c -1.244,0 -2.262,1.018 -2.262,2.263 z" /></g><g
           transform="translate(47.7436,82.4587)"
           id="g60"><path
             id="path62"
             style="fill:#ffffff;fill-opacity:1;fill-rule:nonzero;stroke:none"
             d="M 0,0 1.748,-3.545 5.66,-4.112 2.831,-6.873 3.498,-10.768 0,-8.929 l -3.499,-1.839 0.668,3.895 -2.829,2.761 3.911,0.567 z" /></g><g
           transform="translate(35.4831,74.0012)"
           id="g64"><path
             id="path66"
             style="fill:#ffffff;fill-opacity:1;fill-rule:nonzero;stroke:none"
             d="M 0,0 1.749,-3.545 5.66,-4.112 2.831,-6.873 3.498,-10.768 0,-8.929 l -3.498,-1.839 0.668,3.895 -2.83,2.761 3.911,0.567 z" /></g><g
           transform="translate(22.496,65.1462)"
           id="g68"><path
             id="path70"
             style="fill:#ffffff;fill-opacity:1;fill-rule:nonzero;stroke:none"
             d="M 0,0 1.749,-3.545 5.66,-4.112 2.831,-6.873 3.498,-10.768 0,-8.929 l -3.498,-1.839 0.668,3.895 -2.83,2.761 3.911,0.567 z" /></g><g
           transform="translate(59.7846,74.0012)"
           id="g72"><path
             id="path74"
             style="fill:#ffffff;fill-opacity:1;fill-rule:nonzero;stroke:none"
             d="M 0,0 1.749,-3.545 5.66,-4.112 2.831,-6.873 3.498,-10.768 0,-8.929 l -3.499,-1.839 0.669,3.895 -2.83,2.761 3.911,0.567 z" /></g><g
           transform="translate(71.8151,65.8078)"
           id="g76"><path
             id="path78"
             style="fill:#ffffff;fill-opacity:1;fill-rule:nonzero;stroke:none"
             d="M 0,0 1.749,-3.545 5.66,-4.112 2.831,-6.874 3.498,-10.768 0,-8.929 l -3.498,-1.839 0.668,3.894 -2.83,2.762 3.912,0.567 z" /></g><g
           transform="translate(48.3571,52.8166)"
           id="g80"><path
             id="path82"
             style="fill:#ffffff;fill-opacity:1;fill-rule:nonzero;stroke:none"
             d="M 0,0 1.907,1.297 2.88,4.08 1.826,3.635 c 0,0 -0.332,-0.817 -1.857,-2.022 C -0.266,1.428 -1.071,1.041 -1.844,0.694 -1.285,0.507 -0.674,0.279 0,0" /></g><g
           transform="translate(41.3913,50.2331)"
           id="g84"><path
             id="path86"
             style="fill:#ffffff;fill-opacity:1;fill-rule:nonzero;stroke:none"
             d="m 0,0 -29.292,-21.029 c 0,0 -0.436,-1.65 0.009,-2.705 0.443,-1.056 0.957,-1.744 2.285,-1.412 1.329,0.335 2.688,1.13 2.688,1.13 l 17.006,12.341 c 0,0 0.123,-0.176 0.613,1.612 0.49,1.788 0.591,2.621 0.591,2.621 l 8.324,5.814 C 1.177,-0.99 0.404,-0.465 0,0" /></g><g
           transform="translate(43.7082,50.4035)"
           id="g88"><path
             id="path90"
             style="fill:#ffffff;fill-opacity:1;fill-rule:nonzero;stroke:none"
             d="M 0,0 -0.361,1.131 0.438,2.011 1.597,1.758 1.959,0.625 1.161,-0.252 Z m 6.642,0.425 c -8.404,4.976 -8.874,1.87 -8.673,0.574 0.213,-1.375 4.789,-3.137 10.331,-7.125 14.369,-10.346 18.417,-18.388 24.169,-21.814 6.402,-3.811 7.344,0.503 5.175,4.73 -1.723,3.36 -14.279,12.505 -23.35,18.655 0,0 -4.445,3.134 -7.652,4.98" /></g><g
           transform="translate(0.465,134.0339)"
           id="g92"><path
             id="path94"
             style="fill:none;stroke:#ffffff;stroke-width:0.93000001;stroke-linecap:butt;stroke-linejoin:miter;stroke-miterlimit:10;stroke-dasharray:none;stroke-opacity:1"
             d="m 0,0 c 0,1.307 0.909,2.938 2.021,3.625 l 43.005,30.102 c 1.112,0.687 2.927,0.681 4.033,-0.014 L 91.369,3.638 C 92.476,2.944 93.381,1.307 93.381,0 v -131.193 c 0,-1.307 -1.069,-2.376 -2.375,-2.376 H 2.376 c -1.307,0 -2.376,1.069 -2.376,2.376 z" /></g></g></g></g></svg>