<?xml version="1.0" encoding="UTF-8" standalone="no"?>
<svg
   xmlns:dc="http://purl.org/dc/elements/1.1/"
   xmlns:cc="http://creativecommons.org/ns#"
   xmlns:rdf="http://www.w3.org/1999/02/22-rdf-syntax-ns#"
   xmlns:svg="http://www.w3.org/2000/svg"
   xmlns="http://www.w3.org/2000/svg"
   viewBox="0 0 34.666668 24.3484"
   height="24.3484"
   width="34.666668"
   xml:space="preserve"
   id="svg2"
   version="1.1"><metadata
     id="metadata8"><rdf:RDF><cc:Work
         rdf:about=""><dc:format>image/svg+xml</dc:format><dc:type
           rdf:resource="http://purl.org/dc/dcmitype/StillImage" /></cc:Work></rdf:RDF></metadata><defs
     id="defs6"><clipPath
       id="clipPath18"
       clipPathUnits="userSpaceOnUse"><path
         id="path16"
         d="M 0,18.261 H 26 V 0 H 0 Z" /></clipPath></defs><g
     transform="matrix(1.3333333,0,0,-1.3333333,0,24.3484)"
     id="g10"><g
       id="g12"><g
         clip-path="url(#clipPath18)"
         id="g14"><g
           transform="translate(0,2e-4)"
           id="g20"><path
             id="path22"
             style="fill:#939598;fill-opacity:1;fill-rule:nonzero;stroke:none"
             d="M 0,0 V 1.404 C 0.026,1.402 0.052,1.398 0.077,1.398 c 0.492,0 0.984,0.001 1.476,-10e-4 0.06,-0.001 0.09,0.017 0.113,0.075 0.347,0.867 0.697,1.733 1.047,2.599 0.976,2.42 1.953,4.84 2.93,7.261 0.902,2.235 1.803,4.472 2.705,6.707 0.028,0.069 0.057,0.139 0.091,0.222 1.522,-3.184 3.038,-6.354 4.561,-9.538 1.528,3.185 3.048,6.354 4.574,9.535 0.013,-0.029 0.022,-0.046 0.029,-0.064 0.234,-0.581 0.468,-1.163 0.703,-1.745 0.623,-1.548 1.246,-3.096 1.87,-4.645 0.776,-1.927 1.552,-3.855 2.328,-5.783 0.611,-1.518 1.223,-3.037 1.833,-4.555 0.019,-0.048 0.041,-0.07 0.098,-0.069 0.5,0.002 1,10e-4 1.501,10e-4 0.021,0 0.043,0.004 0.064,0.006 L 26,0 C 25.97,0.001 25.939,0.002 25.909,0.002 H 16.732 16.646 V 1.4 h 1.852 C 17.779,3.185 17.064,4.96 16.343,6.752 15.224,4.493 14.115,2.254 13,0.002 11.889,2.256 10.785,4.495 9.672,6.752 8.945,4.958 8.226,3.185 7.501,1.398 H 9.355 V 0.002 H 9.262 0.091 C 0.061,0.002 0.03,0.001 0,0" /></g></g></g></g></svg>