<?xml version="1.0" encoding="UTF-8" standalone="no"?>
<svg
   xmlns:dc="http://purl.org/dc/elements/1.1/"
   xmlns:cc="http://creativecommons.org/ns#"
   xmlns:rdf="http://www.w3.org/1999/02/22-rdf-syntax-ns#"
   xmlns:svg="http://www.w3.org/2000/svg"
   xmlns="http://www.w3.org/2000/svg"
   viewBox="0 0 38.259068 51.0924"
   height="51.0924"
   width="38.259068"
   xml:space="preserve"
   id="svg2"
   version="1.1"><metadata
     id="metadata8"><rdf:RDF><cc:Work
         rdf:about=""><dc:format>image/svg+xml</dc:format><dc:type
           rdf:resource="http://purl.org/dc/dcmitype/StillImage" /></cc:Work></rdf:RDF></metadata><defs
     id="defs6"><clipPath
       id="clipPath18"
       clipPathUnits="userSpaceOnUse"><path
         id="path16"
         d="M 0,38.319 H 28.694 V 0 H 0 Z" /></clipPath></defs><g
     transform="matrix(1.3333333,0,0,-1.3333333,0,51.0924)"
     id="g10"><g
       id="g12"><g
         clip-path="url(#clipPath18)"
         id="g14"><g
           transform="translate(16.1221,17.3955)"
           id="g20"><path
             id="path22"
             style="fill:#939598;fill-opacity:1;fill-rule:nonzero;stroke:none"
             d="m 0,0 h -0.037 c -0.605,0 -1.1,-0.49 -1.118,-1.125 -0.028,-0.644 0.455,-1.181 1.072,-1.202 h 0.037 c 0.602,0 1.101,0.495 1.123,1.122 C 1.096,-0.562 0.613,-0.026 0,0" /></g><g
           transform="translate(23.5908,24.0762)"
           id="g24"><path
             id="path26"
             style="fill:#939598;fill-opacity:1;fill-rule:nonzero;stroke:none"
             d="m 0,0 h -0.56 v 1.487 l -0.285,0.017 -0.392,0.015 -0.289,0.01 V 0 h -0.392 -0.286 -0.393 v 1.575 l -0.29,0.007 -0.393,0.02 -0.287,0.01 V 0 h -0.392 -0.29 -0.393 V 1.654 L -4.927,1.669 -5.319,1.688 -5.608,1.693 V 0 h -0.391 -0.287 -0.39 v 1.739 l -0.293,0.01 -0.39,0.016 -0.29,0.01 V 0 H -8.04 -8.326 -8.362 l -0.166,2.979 h 0.404 L 0,2.118 Z m 0,-3.996 h -0.661 v 0.723 l -0.728,1.509 h -0.007 v -2.232 h -0.658 v 3.603 h 0.625 l 0.768,-1.481 v 1.481 H 0 Z m -2.663,0.628 -0.633,-0.628 h -0.681 l -0.635,0.628 v 2.975 h 0.699 v -2.975 h 0.549 v 2.975 h 0.701 z m -2.56,1.664 h -0.696 v 0.682 h -0.575 v -2.346 h 0.575 v 0.604 h -0.282 v 0.619 h 0.978 v -1.223 l -0.632,-0.628 h -0.707 l -0.63,0.628 v 2.346 l 0.63,0.629 h 0.707 l 0.632,-0.629 z m -2.292,-7.727 h -0.049 c -0.845,0.029 -1.508,0.766 -1.475,1.64 0.026,0.762 0.562,1.376 1.252,1.506 l -1.456,3.65 -0.033,0.075 -0.026,0.066 -1.525,-3.791 c 0.688,-0.13 1.226,-0.744 1.251,-1.506 0.029,-0.874 -0.628,-1.611 -1.472,-1.64 h -0.051 c -0.826,0 -1.505,0.674 -1.535,1.534 -0.029,0.797 0.513,1.479 1.25,1.612 l 1.159,4.974 0.007,-0.005 0.014,0.225 0.024,0.338 0.015,0.347 0.022,0.406 0.166,2.91 0.376,6.556 0.218,0.357 0.016,-0.27 0.019,0.27 L -9.13,9.466 -8.703,1.979 -8.589,0 l 0.021,-0.392 0.159,-0.699 0.075,-0.335 0.015,-0.079 1.089,-4.78 c 0.733,-0.133 1.277,-0.815 1.25,-1.612 -0.032,-0.86 -0.712,-1.534 -1.535,-1.534 m -5.885,5.435 v 3.603 h 1.468 l 0.633,-0.504 v -1.418 l -0.626,-0.521 h -0.567 v -1.16 z M -13.475,0 h -0.195 -0.141 -0.196 -0.142 -0.198 -0.145 -0.186 -0.146 -0.197 -0.138 -0.198 -0.139 -0.196 -0.141 -0.196 -0.143 -0.192 -0.144 -0.196 -0.139 -0.193 -0.145 -0.198 -0.143 -0.189 -0.144 -0.194 -0.144 -0.277 -0.21 v 2.111 l 8.132,0.868 h 0.461 L -10.255,0 h -0.047 -0.138 -0.201 -0.141 -0.195 -0.145 -0.191 -0.141 -0.193 -0.144 -0.196 -0.143 -0.192 -0.145 -0.195 -0.143 -0.189 -0.146 -0.195 z m -0.522,-3.301 -0.717,-0.695 h -0.781 l -0.718,0.695 v 2.226 l 0.718,0.682 h 0.781 l 0.717,-0.682 z m -2.708,2.115 h -0.539 v -2.81 h -0.904 v 2.81 h -0.544 v 0.793 h 1.987 z m 7.463,12.033 c -6.047,0 -10.948,-4.904 -10.948,-10.953 0,-2.083 0.586,-4.04 1.603,-5.7 0.106,-0.173 0.219,-0.345 0.332,-0.513 0.037,-0.043 0.07,-0.092 0.101,-0.143 0.094,-0.125 0.186,-0.251 0.287,-0.373 0.036,-0.05 0.068,-0.096 0.106,-0.139 0.124,-0.159 0.251,-0.31 0.387,-0.457 0.006,-0.008 0.015,-0.016 0.019,-0.02 0.14,-0.152 0.285,-0.307 0.437,-0.453 0.041,-0.04 0.08,-0.079 0.116,-0.112 0.115,-0.11 0.232,-0.218 0.351,-0.321 0.048,-0.043 0.095,-0.079 0.139,-0.126 0.136,-0.112 0.272,-0.219 0.414,-0.328 0.025,-0.02 0.051,-0.04 0.079,-0.063 0.169,-0.125 0.337,-0.249 0.512,-0.36 0.043,-0.03 0.083,-0.053 0.126,-0.083 0.136,-0.086 0.274,-0.171 0.413,-0.252 0.051,-0.036 0.111,-0.065 0.164,-0.096 0.143,-0.083 0.293,-0.162 0.438,-0.234 0.042,-0.02 0.088,-0.044 0.128,-0.066 0.187,-0.093 0.381,-0.179 0.573,-0.262 0.04,-0.017 0.082,-0.026 0.122,-0.05 0.157,-0.062 0.318,-0.119 0.475,-0.175 0.064,-0.025 0.128,-0.043 0.192,-0.062 0.148,-0.051 0.301,-0.1 0.454,-0.14 0.053,-0.018 0.109,-0.036 0.165,-0.049 0.21,-0.053 0.422,-0.106 0.627,-0.146 0.03,-0.007 0.061,-0.009 0.088,-0.016 0.188,-0.033 0.371,-0.07 0.556,-0.093 0.068,-0.01 0.135,-0.014 0.204,-0.027 0.157,-0.019 0.313,-0.036 0.475,-0.05 0.068,-0.003 0.13,-0.009 0.197,-0.012 0.221,-0.01 0.443,-0.02 0.668,-0.02 0.221,0 0.447,0.01 0.664,0.02 0.066,0.003 0.134,0.009 0.197,0.012 0.163,0.014 0.32,0.031 0.479,0.05 0.068,0.013 0.135,0.017 0.201,0.027 0.185,0.023 0.37,0.06 0.555,0.09 0.031,0.003 0.058,0.012 0.089,0.019 0.208,0.04 0.416,0.093 0.625,0.146 0.058,0.013 0.114,0.031 0.171,0.049 0.152,0.04 0.303,0.089 0.452,0.14 0.063,0.019 0.129,0.037 0.189,0.062 0.162,0.056 0.319,0.113 0.474,0.175 0.041,0.024 0.084,0.033 0.124,0.05 0.193,0.083 0.385,0.169 0.573,0.262 0.044,0.022 0.085,0.046 0.129,0.066 0.147,0.072 0.294,0.151 0.437,0.234 0.055,0.031 0.109,0.06 0.163,0.096 0.141,0.081 0.278,0.166 0.413,0.252 0.044,0.03 0.084,0.053 0.125,0.083 0.176,0.111 0.349,0.235 0.515,0.36 0.027,0.023 0.052,0.043 0.076,0.063 0.144,0.109 0.278,0.216 0.414,0.335 0.047,0.04 0.093,0.076 0.141,0.116 0.12,0.106 0.234,0.214 0.351,0.324 0.039,0.033 0.08,0.072 0.116,0.112 0.151,0.146 0.298,0.301 0.438,0.453 0.007,0.004 0.012,0.012 0.016,0.02 0.133,0.147 0.263,0.298 0.389,0.457 0.036,0.043 0.07,0.089 0.106,0.139 0.099,0.119 0.195,0.248 0.286,0.38 0.033,0.044 0.069,0.093 0.102,0.136 0.114,0.168 0.226,0.34 0.334,0.513 1.014,1.66 1.601,3.617 1.601,5.7 0,6.049 -4.902,10.953 -10.945,10.953" /></g><path
           id="path28"
           style="fill:#939598;fill-opacity:1;fill-rule:nonzero;stroke:none"
           d="m 11.385,22.891 h -0.286 v -0.867 h 0.286 z" /><path
           id="path30"
           style="fill:#939598;fill-opacity:1;fill-rule:nonzero;stroke:none"
           d="m 8.29,20.871 h 0.396 v 2.026 H 8.29 Z" /><g
           transform="translate(12.4424,17.3955)"
           id="g32"><path
             id="path34"
             style="fill:#939598;fill-opacity:1;fill-rule:nonzero;stroke:none"
             d="m 0,0 c -0.616,-0.026 -1.092,-0.562 -1.075,-1.205 0.018,-0.627 0.521,-1.122 1.117,-1.122 h 0.042 c 0.618,0.021 1.1,0.558 1.075,1.202 C 1.137,-0.49 0.643,0 0.041,0 Z" /></g><g
           transform="translate(25.0117,16.8652)"
           id="g36"><path
             id="path38"
             style="fill:#939598;fill-opacity:1;fill-rule:nonzero;stroke:none"
             d="m 0,0 c -1.015,-1.479 -10.663,-14.489 -10.663,-14.489 0,0 -10.158,13.63 -10.913,14.818 -1.234,1.942 -2.019,4.615 -2.019,6.775 0,7.147 5.789,12.933 12.932,12.933 7.141,0 12.929,-5.786 12.929,-12.933 C 2.266,4.944 1.475,2.149 0,0 m -10.663,21.454 c -7.912,0 -14.349,-6.437 -14.349,-14.35 0,-2.436 0.879,-5.393 2.24,-7.535 0.76,-1.198 9.929,-13.506 10.972,-14.905 l 1.14,-1.529 1.136,1.531 c 0.394,0.532 9.675,13.048 10.693,14.532 1.551,2.261 2.514,5.29 2.514,7.906 0,7.913 -6.436,14.35 -14.346,14.35" /></g></g></g></g></svg>