<?xml version="1.0" encoding="UTF-8" standalone="no"?>
<svg
   xmlns:dc="http://purl.org/dc/elements/1.1/"
   xmlns:cc="http://creativecommons.org/ns#"
   xmlns:rdf="http://www.w3.org/1999/02/22-rdf-syntax-ns#"
   xmlns:svg="http://www.w3.org/2000/svg"
   xmlns="http://www.w3.org/2000/svg"
   viewBox="0 0 61.904133 61.905201"
   height="61.905201"
   width="61.904133"
   xml:space="preserve"
   id="svg2"
   version="1.1"><metadata
     id="metadata8"><rdf:RDF><cc:Work
         rdf:about=""><dc:format>image/svg+xml</dc:format><dc:type
           rdf:resource="http://purl.org/dc/dcmitype/StillImage" /></cc:Work></rdf:RDF></metadata><defs
     id="defs6"><clipPath
       id="clipPath18"
       clipPathUnits="userSpaceOnUse"><path
         id="path16"
         d="M 0,46.429 H 46.428 V 0 H 0 Z" /></clipPath></defs><g
     transform="matrix(1.3333333,0,0,-1.3333333,0,61.9052)"
     id="g10"><g
       id="g12"><g
         clip-path="url(#clipPath18)"
         id="g14"><g
           transform="translate(19.8288,30.9329)"
           id="g20"><path
             id="path22"
             style="fill:none;stroke:#ffffff;stroke-width:0.71600002;stroke-linecap:butt;stroke-linejoin:miter;stroke-miterlimit:10;stroke-dasharray:none;stroke-opacity:1"
             d="m 0,0 c 4.263,1.87 9.234,-0.07 11.104,-4.333 1.87,-4.264 -0.071,-9.234 -4.333,-11.104 -4.264,-1.87 -9.235,0.07 -11.104,4.333 C -6.203,-6.841 -4.263,-1.869 0,0 Z" /></g><g
           transform="translate(8.8471,19.1663)"
           id="g24"><path
             id="path26"
             style="fill:#ffffff;fill-opacity:1;fill-rule:nonzero;stroke:none"
             d="M 0,0 0.417,-1.266 2.398,-0.613 1.98,0.654 Z m -1.267,-0.417 -2.152,-0.71 0.418,-1.267 2.152,0.71 z M -4.319,-3.313 -5.413,0.002 2.91,2.747 3.974,-0.476 3.267,-1.973 1.115,-2.683 0.15,-2.158 -0.317,-3.295 -2.792,-4.111 Z" /></g><g
           transform="translate(13.9184,13.7317)"
           id="g28"><path
             id="path30"
             style="fill:#ffffff;fill-opacity:1;fill-rule:nonzero;stroke:none"
             d="m 0,0 -2.155,-2.463 1.112,-0.974 2.459,2.81 -0.76,0.665 z m -5.748,-3.989 4.775,5.453 2.139,0.142 2.525,-2.211 -5.773,-6.594 -1.277,1.117 1.389,1.587 -1.112,0.974 -1.39,-1.586 z" /></g><g
           transform="translate(19.852,8.6414)"
           id="g32"><path
             id="path34"
             style="fill:#ffffff;fill-opacity:1;fill-rule:nonzero;stroke:none"
             d="M 0,0 1.31,-0.25 1.708,1.846 0.399,2.096 Z M -0.952,-5.001 -2.619,-4.684 -0.98,3.925 2.354,3.291 3.319,1.948 2.894,-0.291 1.89,-1.026 2.687,-2.091 2.025,-5.568 0.358,-5.25 0.963,-2.071 0.498,-1.403 -0.24,-1.262 Z" /></g><g
           transform="translate(27.9907,7.6946)"
           id="g36"><path
             id="path38"
             style="fill:#ffffff;fill-opacity:1;fill-rule:nonzero;stroke:none"
             d="M 0,0 0.751,-2.138 2.009,-1.695 1.257,0.442 Z M -0.442,1.258 0.815,1.701 0.124,3.667 -1.134,3.226 Z M 2.954,-2.995 -0.339,-4.153 -3.246,4.115 -0.043,5.241 1.466,4.563 2.218,2.425 1.713,1.451 2.859,1.005 3.723,-1.453 Z" /></g><g
           transform="translate(39.2963,11.1116)"
           id="g40"><path
             id="path42"
             style="fill:#ffffff;fill-opacity:1;fill-rule:nonzero;stroke:none"
             d="M 0,0 -2.52,-2.756 -8.987,3.158 -6.468,5.914 -5.332,4.875 -6.706,3.372 -5.248,2.039 -4.102,3.291 -3.064,2.342 -4.209,1.09 -2.51,-0.464 -1.136,1.039 Z" /></g><g
           transform="translate(37.5561,18.9778)"
           id="g44"><path
             id="path46"
             style="fill:#ffffff;fill-opacity:1;fill-rule:nonzero;stroke:none"
             d="M 0,0 0.33,1.292 -1.738,1.819 -2.067,0.527 Z M 4.934,-1.257 4.515,-2.901 -3.979,-0.737 -3.14,2.552 -1.739,3.433 0.469,2.87 1.141,1.824 2.252,2.553 5.682,1.679 5.263,0.034 2.126,0.834 1.431,0.411 1.245,-0.317 Z" /></g><g
           transform="translate(14.6709,35.6736)"
           id="g48"><path
             id="path50"
             style="fill:#ffffff;fill-opacity:1;fill-rule:nonzero;stroke:none"
             d="M 0,0 0.524,0.344 -0.527,1.944 -1.051,1.6 Z M 2.349,-3.576 0.676,-4.675 -3.69,1.971 -0.988,3.748 0.802,3.567 2.511,0.966 1.981,-0.751 0.942,-1.434 Z" /></g><g
           transform="translate(22.5761,38.843)"
           id="g52"><path
             id="path54"
             style="fill:#ffffff;fill-opacity:1;fill-rule:nonzero;stroke:none"
             d="M 0,0 0.748,0.016 0.717,1.402 -0.031,1.386 Z M 0.106,-4.806 -1.895,-4.851 -2.071,3.101 1.327,3.176 2.583,2.115 2.63,-0.03 1.975,-0.727 2.782,-1.391 2.856,-4.745 0.854,-4.789 0.782,-1.523 0.034,-1.54 Z" /></g><g
           transform="translate(31.5961,38.0754)"
           id="g56"><path
             id="path58"
             style="fill:#ffffff;fill-opacity:1;fill-rule:nonzero;stroke:none"
             d="m 0,0 -2.281,-3.826 0.755,-0.451 2.283,3.826 z M -3.542,-5.124 -4.114,-2.99 -1.606,1.214 0.532,1.707 2.006,0.828 2.588,-1.287 0.081,-5.492 -2.068,-6.003 Z" /></g><g
           transform="translate(16.531,45.0046)"
           id="g60"><path
             id="path62"
             style="fill:none;stroke:#ffffff;stroke-width:0.833;stroke-linecap:butt;stroke-linejoin:miter;stroke-miterlimit:10;stroke-dasharray:none;stroke-opacity:1"
             d="M 0,0 C 12.034,3.691 24.782,-3.072 28.473,-15.106 32.164,-27.141 25.401,-39.889 13.366,-43.58 1.333,-47.271 -11.414,-40.508 -15.106,-28.474 -18.798,-16.44 -12.034,-3.692 0,0 Z" /></g><g
           transform="translate(23.2141,27.1155)"
           id="g64"><path
             id="path66"
             style="fill:#ffffff;fill-opacity:1;fill-rule:nonzero;stroke:none"
             d="M 0,0 1.268,-2.568 4.102,-2.98 2.051,-4.979 2.535,-7.802 0,-6.469 l -2.535,-1.333 0.484,2.823 -2.051,1.999 2.834,0.412 z" /></g><g
           transform="translate(6.8386,32.531)"
           id="g68"><path
             id="path70"
             style="fill:#ffffff;fill-opacity:1;fill-rule:nonzero;stroke:none"
             d="M 0,0 1.456,-0.095 2.36,1.051 2.719,-0.364 4.089,-0.869 2.854,-1.648 2.797,-3.106 1.675,-2.174 0.27,-2.569 0.81,-1.214 Z" /></g><g
           transform="translate(4.7595,26.3069)"
           id="g72"><path
             id="path74"
             style="fill:#ffffff;fill-opacity:1;fill-rule:nonzero;stroke:none"
             d="M 0,0 1.391,0.406 1.845,1.782 2.661,0.584 4.109,0.578 3.223,-0.568 3.664,-1.948 2.3,-1.459 1.124,-2.305 1.168,-0.857 Z" /></g><g
           transform="translate(41.1589,26.3069)"
           id="g76"><path
             id="path78"
             style="fill:#ffffff;fill-opacity:1;fill-rule:nonzero;stroke:none"
             d="m 0,0 -1.168,-0.857 0.044,-1.448 -1.176,0.846 -1.364,-0.489 0.441,1.38 -0.886,1.146 1.448,0.006 0.816,1.198 0.454,-1.376 z" /></g><g
           transform="translate(38.9638,32.3381)"
           id="g80"><path
             id="path82"
             style="fill:#ffffff;fill-opacity:1;fill-rule:nonzero;stroke:none"
             d="m 0,0 -0.805,-1.205 0.537,-1.346 -1.395,0.393 -1.114,-0.926 -0.057,1.447 -1.225,0.774 1.359,0.502 0.357,1.404 0.897,-1.138 z" /></g></g></g></g></svg>