<?xml version="1.0" encoding="UTF-8" standalone="no"?>
<svg
   xmlns:dc="http://purl.org/dc/elements/1.1/"
   xmlns:cc="http://creativecommons.org/ns#"
   xmlns:rdf="http://www.w3.org/1999/02/22-rdf-syntax-ns#"
   xmlns:svg="http://www.w3.org/2000/svg"
   xmlns="http://www.w3.org/2000/svg"
   viewBox="0 0 61.904133 61.905201"
   height="61.905201"
   width="61.904133"
   xml:space="preserve"
   id="svg2"
   version="1.1"><metadata
     id="metadata8"><rdf:RDF><cc:Work
         rdf:about=""><dc:format>image/svg+xml</dc:format><dc:type
           rdf:resource="http://purl.org/dc/dcmitype/StillImage" /></cc:Work></rdf:RDF></metadata><defs
     id="defs6"><clipPath
       id="clipPath18"
       clipPathUnits="userSpaceOnUse"><path
         id="path16"
         d="M 0,46.429 H 46.428 V 0 H 0 Z" /></clipPath></defs><g
     transform="matrix(1.3333333,0,0,-1.3333333,0,61.9052)"
     id="g10"><g
       id="g12"><g
         clip-path="url(#clipPath18)"
         id="g14"><g
           transform="translate(19.829,30.9329)"
           id="g20"><path
             id="path22"
             style="fill:none;stroke:#ffffff;stroke-width:0.71600002;stroke-linecap:butt;stroke-linejoin:miter;stroke-miterlimit:10;stroke-dasharray:none;stroke-opacity:1"
             d="m 0,0 c 4.263,1.87 9.234,-0.07 11.104,-4.333 1.87,-4.264 -0.071,-9.234 -4.333,-11.104 -4.264,-1.87 -9.235,0.07 -11.105,4.333 C -6.203,-6.841 -4.263,-1.869 0,0 Z" /></g><g
           transform="translate(8.5629,20.3459)"
           id="g24"><path
             id="path26"
             style="fill:#ffffff;fill-opacity:1;fill-rule:nonzero;stroke:none"
             d="m 0,0 0.314,-1.296 2.026,0.49 -0.314,1.297 z m -1.296,-0.314 -2.203,-0.533 0.314,-1.296 2.203,0.533 z m -3.277,-2.639 -0.822,3.393 8.518,2.063 0.799,-3.3 -0.825,-1.434 -2.203,-0.534 -0.919,0.601 -0.558,-1.095 -2.533,-0.613 z" /></g><g
           transform="translate(13.4691,14.1936)"
           id="g28"><path
             id="path30"
             style="fill:#ffffff;fill-opacity:1;fill-rule:nonzero;stroke:none"
             d="m 0,0 -2.273,-2.354 1.063,-1.028 2.594,2.686 -0.727,0.702 z m -5.936,-3.703 5.036,5.213 2.142,0.037 2.415,-2.333 -6.089,-6.303 -1.22,1.178 1.465,1.517 -1.064,1.029 -1.465,-1.518 z" /></g><g
           transform="translate(19.599,8.7024)"
           id="g32"><path
             id="path34"
             style="fill:#ffffff;fill-opacity:1;fill-rule:nonzero;stroke:none"
             d="M 0,0 1.306,-0.271 1.74,1.817 0.435,2.089 Z M -1.038,-4.984 -2.7,-4.638 -0.913,3.942 2.411,3.25 3.353,1.89 2.888,-0.341 1.872,-1.059 2.65,-2.137 1.928,-5.603 l -1.661,0.347 0.66,3.169 -0.453,0.676 -0.736,0.153 z" /></g><g
           transform="translate(28.2455,7.7766)"
           id="g36"><path
             id="path38"
             style="fill:#ffffff;fill-opacity:1;fill-rule:nonzero;stroke:none"
             d="M 0,0 0.787,-2.125 2.038,-1.663 1.251,0.463 Z M -0.463,1.251 0.788,1.713 0.063,3.669 -1.187,3.206 Z M 3.004,-2.946 -0.27,-4.158 -3.313,4.061 -0.129,5.239 1.392,4.587 2.178,2.461 1.689,1.479 2.842,1.052 3.747,-1.392 Z" /></g><g
           transform="translate(39.8671,11.9094)"
           id="g40"><path
             id="path42"
             style="fill:#ffffff;fill-opacity:1;fill-rule:nonzero;stroke:none"
             d="m 0,0 -2.382,-2.876 -6.75,5.59 2.382,2.876 1.185,-0.983 -1.299,-1.568 1.523,-1.26 1.082,1.307 1.083,-0.897 -1.082,-1.307 1.774,-1.469 1.298,1.569 z" /></g><g
           transform="translate(37.8539,20.1497)"
           id="g44"><path
             id="path46"
             style="fill:#ffffff;fill-opacity:1;fill-rule:nonzero;stroke:none"
             d="M 0,0 0.225,1.314 -1.878,1.674 -2.103,0.359 Z M 5.019,-0.857 4.733,-2.529 -3.906,-1.055 -3.334,2.291 -2.01,3.283 0.237,2.899 0.99,1.909 2.04,2.727 5.529,2.13 5.243,0.458 2.053,1.003 1.394,0.524 1.267,-0.216 Z" /></g><g
           transform="translate(17.7186,32.615)"
           id="g48"><path
             id="path50"
             style="fill:#ffffff;fill-opacity:1;fill-rule:nonzero;stroke:none"
             d="M 0,0 -1.882,-1.391 -6.185,4.43 -7.301,3.604 -8.524,5.259 -4.419,8.293 -3.196,6.639 -4.303,5.821 Z" /></g><g
           transform="translate(21.8714,41.2659)"
           id="g52"><path
             id="path54"
             style="fill:#ffffff;fill-opacity:1;fill-rule:nonzero;stroke:none"
             d="M 0,0 0.244,-5.202 1.271,-5.153 1.027,0.048 Z M -0.148,-7.279 -2.082,-5.568 -2.35,0.146 -0.583,2.007 1.419,2.101 3.353,0.415 3.621,-5.3 1.855,-7.186 Z" /></g><g
           transform="translate(31.5384,36.6995)"
           id="g56"><path
             id="path58"
             style="fill:#ffffff;fill-opacity:1;fill-rule:nonzero;stroke:none"
             d="M 0,0 0.616,-0.398 1.83,1.481 1.214,1.879 Z M -2.714,-4.201 -4.679,-2.932 0.365,4.876 3.54,2.826 4.193,0.827 2.219,-2.229 0.133,-2.474 -1.088,-1.685 Z" /></g><g
           transform="translate(16.5309,45.0046)"
           id="g60"><path
             id="path62"
             style="fill:none;stroke:#ffffff;stroke-width:0.833;stroke-linecap:butt;stroke-linejoin:miter;stroke-miterlimit:10;stroke-dasharray:none;stroke-opacity:1"
             d="M 0,0 C 12.034,3.691 24.782,-3.072 28.473,-15.106 32.164,-27.141 25.401,-39.889 13.366,-43.58 1.333,-47.271 -11.414,-40.508 -15.106,-28.474 -18.797,-16.44 -12.034,-3.692 0,0 Z" /></g><g
           transform="translate(4.9474,30.1267)"
           id="g64"><path
             id="path66"
             style="fill:#ffffff;fill-opacity:1;fill-rule:nonzero;stroke:none"
             d="M 0,0 2.156,-0.141 3.494,1.556 4.026,-0.538 6.052,-1.287 4.226,-2.44 4.14,-4.598 2.479,-3.217 0.4,-3.803 1.2,-1.796 Z" /></g><g
           transform="translate(41.4808,30.1267)"
           id="g68"><path
             id="path70"
             style="fill:#ffffff;fill-opacity:1;fill-rule:nonzero;stroke:none"
             d="m 0,0 -1.2,-1.796 0.8,-2.007 -2.079,0.586 -1.661,-1.381 -0.086,2.158 -1.826,1.153 2.026,0.749 0.532,2.094 1.338,-1.697 z" /></g><g
           transform="translate(23.214,29.0178)"
           id="g72"><path
             id="path74"
             style="fill:#ffffff;fill-opacity:1;fill-rule:nonzero;stroke:none"
             d="M 0,0 1.886,-3.821 6.102,-4.434 3.051,-7.407 3.771,-11.606 0,-9.624 l -3.771,-1.982 0.72,4.199 -3.051,2.973 4.217,0.613 z" /></g></g></g></g></svg>