<?xml version="1.0" encoding="UTF-8" standalone="no"?>
<svg
   xmlns:dc="http://purl.org/dc/elements/1.1/"
   xmlns:cc="http://creativecommons.org/ns#"
   xmlns:rdf="http://www.w3.org/1999/02/22-rdf-syntax-ns#"
   xmlns:svg="http://www.w3.org/2000/svg"
   xmlns="http://www.w3.org/2000/svg"
   viewBox="0 0 61.904133 61.905201"
   height="61.905201"
   width="61.904133"
   xml:space="preserve"
   id="svg2"
   version="1.1"><metadata
     id="metadata8"><rdf:RDF><cc:Work
         rdf:about=""><dc:format>image/svg+xml</dc:format><dc:type
           rdf:resource="http://purl.org/dc/dcmitype/StillImage" /></cc:Work></rdf:RDF></metadata><defs
     id="defs6"><clipPath
       id="clipPath18"
       clipPathUnits="userSpaceOnUse"><path
         id="path16"
         d="M 0,46.429 H 46.428 V 0 H 0 Z" /></clipPath></defs><g
     transform="matrix(1.3333333,0,0,-1.3333333,0,61.9052)"
     id="g10"><g
       id="g12"><g
         clip-path="url(#clipPath18)"
         id="g14"><g
           transform="translate(19.8288,30.9329)"
           id="g20"><path
             id="path22"
             style="fill:none;stroke:#ffffff;stroke-width:0.71600002;stroke-linecap:butt;stroke-linejoin:miter;stroke-miterlimit:10;stroke-dasharray:none;stroke-opacity:1"
             d="m 0,0 c 4.263,1.87 9.234,-0.07 11.104,-4.333 1.87,-4.264 -0.071,-9.234 -4.333,-11.104 -4.264,-1.87 -9.235,0.07 -11.104,4.333 C -6.203,-6.841 -4.263,-1.869 0,0 Z" /></g><g
           transform="translate(8.7702,19.4485)"
           id="g24"><path
             id="path26"
             style="fill:#ffffff;fill-opacity:1;fill-rule:nonzero;stroke:none"
             d="m 0,0 0.393,-1.275 1.992,0.614 -0.393,1.275 z m -1.274,-0.394 -2.167,-0.667 0.393,-1.274 2.167,0.667 z m -3.109,-2.835 -1.029,3.335 8.375,2.583 1,-3.243 -0.735,-1.483 -2.166,-0.668 -0.955,0.544 -0.489,-1.128 -2.49,-0.769 z" /></g><g
           transform="translate(13.8034,13.8445)"
           id="g28"><path
             id="path30"
             style="fill:#ffffff;fill-opacity:1;fill-rule:nonzero;stroke:none"
             d="m 0,0 -2.186,-2.436 1.101,-0.987 2.493,2.778 -0.751,0.675 z m -5.797,-3.918 4.842,5.395 2.14,0.115 2.499,-2.243 -5.855,-6.522 -1.263,1.133 1.409,1.57 -1.1,0.988 -1.409,-1.57 z" /></g><g
           transform="translate(19.7819,8.657)"
           id="g32"><path
             id="path34"
             style="fill:#ffffff;fill-opacity:1;fill-rule:nonzero;stroke:none"
             d="M 0,0 1.309,-0.255 1.718,1.839 0.409,2.094 Z M -0.976,-4.998 -2.641,-4.671 -0.962,3.93 2.369,3.28 3.329,1.932 2.892,-0.305 1.885,-1.035 2.677,-2.104 2,-5.578 l -1.667,0.326 0.62,3.176 -0.461,0.671 -0.738,0.144 z" /></g><g
           transform="translate(28.0603,7.7161)"
           id="g36"><path
             id="path38"
             style="fill:#ffffff;fill-opacity:1;fill-rule:nonzero;stroke:none"
             d="M 0,0 0.761,-2.135 2.017,-1.687 1.256,0.448 Z M -0.448,1.256 0.808,1.704 0.107,3.668 -1.148,3.22 Z M 2.968,-2.982 -0.32,-4.155 -3.264,4.1 -0.067,5.24 1.446,4.57 2.208,2.435 1.706,1.458 2.854,1.018 3.729,-1.437 Z" /></g><g
           transform="translate(39.4426,11.3079)"
           id="g40"><path
             id="path42"
             style="fill:#ffffff;fill-opacity:1;fill-rule:nonzero;stroke:none"
             d="m 0,0 -2.486,-2.786 -6.539,5.834 2.485,2.786 1.149,-1.024 -1.356,-1.52 1.475,-1.315 1.129,1.266 1.05,-0.936 -1.13,-1.266 1.719,-1.534 1.356,1.52 z" /></g><g
           transform="translate(37.6359,19.2542)"
           id="g44"><path
             id="path46"
             style="fill:#ffffff;fill-opacity:1;fill-rule:nonzero;stroke:none"
             d="M 0,0 0.305,1.298 -1.772,1.785 -2.077,0.487 Z M 4.957,-1.164 4.569,-2.816 -3.963,-0.813 -3.188,2.491 -1.804,3.399 0.415,2.878 1.106,1.845 2.204,2.596 5.649,1.786 5.261,0.134 2.11,0.874 1.423,0.438 1.25,-0.294 Z" /></g><g
           transform="translate(16.531,45.0046)"
           id="g48"><path
             id="path50"
             style="fill:none;stroke:#ffffff;stroke-width:0.833;stroke-linecap:butt;stroke-linejoin:miter;stroke-miterlimit:10;stroke-dasharray:none;stroke-opacity:1"
             d="M 0,0 C 12.034,3.691 24.782,-3.072 28.473,-15.106 32.164,-27.141 25.401,-39.889 13.366,-43.58 1.333,-47.271 -11.414,-40.508 -15.106,-28.474 -18.798,-16.44 -12.034,-3.692 0,0 Z" /></g><g
           transform="translate(23.2141,26.1262)"
           id="g52"><path
             id="path54"
             style="fill:#ffffff;fill-opacity:1;fill-rule:nonzero;stroke:none"
             d="M 0,0 0.946,-1.917 3.062,-2.225 1.531,-3.716 1.892,-5.824 0,-4.829 l -1.892,-0.995 0.361,2.108 -1.531,1.491 2.116,0.308 z" /></g><g
           transform="translate(23.2141,41.8381)"
           id="g56"><path
             id="path58"
             style="fill:#ffffff;fill-opacity:1;fill-rule:nonzero;stroke:none"
             d="M 0,0 0.646,-1.309 2.09,-1.519 1.045,-2.537 1.292,-3.975 0,-3.296 l -1.292,-0.679 0.247,1.438 -1.045,1.018 1.444,0.21 z" /></g><g
           transform="translate(16.8476,40.7156)"
           id="g60"><path
             id="path62"
             style="fill:#ffffff;fill-opacity:1;fill-rule:nonzero;stroke:none"
             d="m 0,0 1.054,-1.009 1.429,0.297 -0.633,-1.315 0.723,-1.267 -1.446,0.196 -0.981,-1.079 -0.26,1.436 -1.331,0.599 1.286,0.691 z" /></g><g
           transform="translate(11.2487,37.4832)"
           id="g64"><path
             id="path66"
             style="fill:#ffffff;fill-opacity:1;fill-rule:nonzero;stroke:none"
             d="M 0,0 1.336,-0.587 2.577,0.18 2.431,-1.271 3.545,-2.215 2.119,-2.525 1.566,-3.875 0.83,-2.615 -0.625,-2.506 0.346,-1.417 Z" /></g><g
           transform="translate(7.0935,32.531)"
           id="g68"><path
             id="path70"
             style="fill:#ffffff;fill-opacity:1;fill-rule:nonzero;stroke:none"
             d="M 0,0 1.456,-0.095 2.36,1.051 2.719,-0.364 4.089,-0.869 2.854,-1.648 2.797,-3.106 1.675,-2.174 0.27,-2.569 0.81,-1.214 Z" /></g><g
           transform="translate(5.0144,26.3069)"
           id="g72"><path
             id="path74"
             style="fill:#ffffff;fill-opacity:1;fill-rule:nonzero;stroke:none"
             d="M 0,0 1.391,0.406 1.845,1.782 2.661,0.584 4.109,0.578 3.223,-0.568 3.664,-1.948 2.3,-1.459 1.124,-2.305 1.168,-0.857 Z" /></g><g
           transform="translate(41.4138,26.3069)"
           id="g76"><path
             id="path78"
             style="fill:#ffffff;fill-opacity:1;fill-rule:nonzero;stroke:none"
             d="m 0,0 -1.168,-0.857 0.044,-1.448 -1.176,0.846 -1.364,-0.489 0.441,1.38 -0.886,1.146 1.448,0.006 0.816,1.198 0.454,-1.376 z" /></g><g
           transform="translate(39.2187,32.3381)"
           id="g80"><path
             id="path82"
             style="fill:#ffffff;fill-opacity:1;fill-rule:nonzero;stroke:none"
             d="m 0,0 -0.805,-1.205 0.537,-1.346 -1.395,0.393 -1.114,-0.926 -0.057,1.447 -1.225,0.774 1.359,0.502 0.357,1.404 0.897,-1.138 z" /></g><g
           transform="translate(35.093,37.2546)"
           id="g84"><path
             id="path86"
             style="fill:#ffffff;fill-opacity:1;fill-rule:nonzero;stroke:none"
             d="m 0,0 -0.344,-1.407 0.965,-1.082 -1.445,-0.108 -0.73,-1.251 -0.55,1.341 -1.415,0.308 1.105,0.936 -0.144,1.442 1.232,-0.762 z" /></g><g
           transform="translate(29.5349,40.4636)"
           id="g88"><path
             id="path90"
             style="fill:#ffffff;fill-opacity:1;fill-rule:nonzero;stroke:none"
             d="m 0,0 0.158,-1.44 1.276,-0.686 -1.321,-0.596 -0.258,-1.425 -0.974,1.072 -1.436,-0.195 0.719,1.258 -0.63,1.305 1.419,-0.294 z" /></g></g></g></g></svg>