<?xml version="1.0" encoding="UTF-8" standalone="no"?>
<svg
   xmlns:dc="http://purl.org/dc/elements/1.1/"
   xmlns:cc="http://creativecommons.org/ns#"
   xmlns:rdf="http://www.w3.org/1999/02/22-rdf-syntax-ns#"
   xmlns:svg="http://www.w3.org/2000/svg"
   xmlns="http://www.w3.org/2000/svg"
   viewBox="0 0 26.212267 27.038134"
   height="27.038134"
   width="26.212267"
   xml:space="preserve"
   id="svg2"
   version="1.1"><metadata
     id="metadata8"><rdf:RDF><cc:Work
         rdf:about=""><dc:format>image/svg+xml</dc:format><dc:type
           rdf:resource="http://purl.org/dc/dcmitype/StillImage" /></cc:Work></rdf:RDF></metadata><defs
     id="defs6"><clipPath
       id="clipPath18"
       clipPathUnits="userSpaceOnUse"><path
         id="path16"
         d="M 0,20.279 H 19.659 V 0 H 0 Z" /></clipPath></defs><g
     transform="matrix(1.3333333,0,0,-1.3333333,0,27.038133)"
     id="g10"><g
       id="g12"><g
         clip-path="url(#clipPath18)"
         id="g14"><g
           transform="translate(11.7592,0.445)"
           id="g20"><path
             id="path22"
             style="fill:#373535;fill-opacity:1;fill-rule:nonzero;stroke:none"
             d="m 0,0 h -0.039 c -0.65,0.023 -1.158,0.589 -1.129,1.267 0.02,0.669 0.541,1.184 1.178,1.184 H 0.049 C 0.694,2.424 1.202,1.859 1.183,1.183 1.159,0.521 0.634,0 0,0 M -2.606,1.267 C -2.58,0.589 -3.088,0.023 -3.738,0 h -0.045 c -0.627,0 -1.156,0.521 -1.177,1.183 -0.017,0.676 0.484,1.241 1.133,1.268 h 0.043 c 0.634,0 1.154,-0.515 1.178,-1.184 m 2.906,1.601 -1.148,5.034 -0.014,0.084 -0.08,0.353 -0.167,0.736 -0.022,0.412 -0.121,2.084 -0.449,7.886 -0.23,0.377 -0.02,-0.285 -0.017,0.285 L -2.197,19.457 -2.593,12.553 -2.768,9.487 -2.791,9.06 -2.807,8.694 -2.832,8.339 -2.847,8.102 -2.854,8.107 -4.075,2.868 C -4.852,2.729 -5.423,2.01 -5.392,1.17 -5.36,0.265 -4.645,-0.445 -3.774,-0.445 h 0.053 c 0.889,0.03 1.58,0.806 1.55,1.727 -0.026,0.802 -0.593,1.449 -1.317,1.586 L -1.882,6.86 -1.855,6.792 -1.82,6.713 -0.287,2.868 C -1.013,2.731 -1.578,2.084 -1.605,1.282 -1.641,0.361 -0.942,-0.415 -0.053,-0.445 H 0 c 0.866,0 1.583,0.71 1.616,1.615 C 1.645,2.01 1.072,2.729 0.3,2.868" /></g><g
           transform="translate(8.7641,12.07)"
           id="g24"><path
             id="path26"
             style="fill:#373535;fill-opacity:1;fill-rule:nonzero;stroke:none"
             d="m 0,0 h -0.199 l -8.565,-0.914 v -2.017 h 8.599 z" /></g><g
           transform="translate(19.6596,11.1559)"
           id="g28"><path
             id="path30"
             style="fill:#373535;fill-opacity:1;fill-rule:nonzero;stroke:none"
             d="m 0,0 -8.565,0.914 h -0.2 l 0.166,-2.931 H 0 Z" /></g></g></g></g></svg>