<?xml version="1.0" encoding="UTF-8" standalone="no"?>
<svg
   xmlns:dc="http://purl.org/dc/elements/1.1/"
   xmlns:cc="http://creativecommons.org/ns#"
   xmlns:rdf="http://www.w3.org/1999/02/22-rdf-syntax-ns#"
   xmlns:svg="http://www.w3.org/2000/svg"
   xmlns="http://www.w3.org/2000/svg"
   viewBox="0 0 938.45868 220.49068"
   height="220.49068"
   width="938.45868"
   xml:space="preserve"
   id="svg2"
   version="1.1"><metadata
     id="metadata8"><rdf:RDF><cc:Work
         rdf:about=""><dc:format>image/svg+xml</dc:format><dc:type
           rdf:resource="http://purl.org/dc/dcmitype/StillImage" /></cc:Work></rdf:RDF></metadata><defs
     id="defs6" /><g
     transform="matrix(1.3333333,0,0,-1.3333333,0,220.49067)"
     id="g10"><g
       transform="translate(0,165.33)"
       id="g12"><path
         id="path14"
         style="fill:#ffffff;fill-opacity:1;fill-rule:nonzero;stroke:none"
         d="m 0,0 0.004,-36.574 24.687,0.008 0.01,-128.764 41.61,0.01 -0.004,128.757 24.469,-0.009 0,36.572 z" /></g><g
       transform="translate(146.3571,165.3327)"
       id="g16"><path
         id="path18"
         style="fill:#ffffff;fill-opacity:1;fill-rule:nonzero;stroke:none"
         d="M 0,0 -32.92,-31.586 -32.915,-133.299 0,-165.33 l 35.691,0.008 32.925,32.019 -0.007,101.72 -32.93,31.588 z m 8.701,-36.105 18.278,-0.009 0.007,-92.644 -18.282,-0.002 z" /></g><g
       transform="translate(242.1747,165.3381)"
       id="g20"><path
         id="path22"
         style="fill:#ffffff;fill-opacity:1;fill-rule:nonzero;stroke:none"
         d="m 0,0 0.014,-165.328 41.631,0.001 -0.003,53.291 25.829,-0.005 28.812,23.796 v 64.706 L 67.238,0.009 Z m 41.639,-36.571 13.044,0.002 0.005,-39.805 -13.046,-0.004 z" /></g><g
       transform="translate(403.5402,165.3435)"
       id="g24"><path
         id="path26"
         style="fill:#ffffff;fill-opacity:1;fill-rule:nonzero;stroke:none"
         d="m 0,0 -28.809,-29.013 0.008,-107.264 28.816,-29.051 32.26,0.011 29.043,29.044 -0.007,55.805 -44.84,-0.002 v -28.146 h 12.828 l 0.006,-27.661 -26.096,-0.002 -0.002,107.268 26.087,0.01 0.005,-31.137 H 61.311 L 61.305,-29.003 32.263,0.013 Z" /></g><g
       transform="translate(549.9189,165.3624)"
       id="g28"><path
         id="path30"
         style="fill:#ffffff;fill-opacity:1;fill-rule:nonzero;stroke:none"
         d="m 0,0 0.013,-136.287 -25.164,0.004 -0.006,136.278 -32.032,-0.008 0.008,-136.277 29.06,-29.039 H 2.983 L 32.035,-136.284 32.03,0 Z" /></g><g
       transform="translate(638.4132,165.3678)"
       id="g32"><path
         id="path34"
         style="fill:#ffffff;fill-opacity:1;fill-rule:nonzero;stroke:none"
         d="m 0,0 -28.578,-0.01 0.008,-165.325 H 1.613 L 1.601,-63.104 h 0.252 l 33.377,-68.832 0.004,-33.399 30.197,0.011 -0.015,165.322 -30.197,-0.003 0.005,-68.127 z" /></g></g></svg>